<svg width="636" height="636" viewBox="0 0 636 636" fill="none" xmlns="http://www.w3.org/2000/svg">
<path d="M479.169 598.139H158.187V506.803L186.893 485.926V465.049C186.893 465.049 192.33 459.095 200.3 449.391C218.537 427.183 250.033 385.331 259.962 350.226C274.229 299.779 254.742 206.697 254.742 206.697H390.442C390.442 206.697 368.284 284.122 380.004 334.568C388.525 371.246 420.522 423.564 437.354 449.391C443.672 459.087 447.854 465.049 447.854 465.049V485.926L479.169 506.803V598.139Z" fill="url(#paint0_linear_3_680)"/>
<path d="M186.893 485.926L158.187 506.803V598.139H479.169V506.803L447.854 485.926M186.893 485.926V465.049C186.893 465.049 192.33 459.095 200.3 449.391M186.893 485.926H447.854M447.854 485.926V465.049C447.854 465.049 443.672 459.087 437.354 449.391M200.3 449.391C218.537 427.183 250.033 385.331 259.962 350.226C274.229 299.779 254.742 206.697 254.742 206.697H390.442C390.442 206.697 368.284 284.122 380.004 334.568C388.525 371.246 420.522 423.564 437.354 449.391M200.3 449.391H437.354" stroke="white" stroke-width="18.4296"/>
<path d="M345.172 87.4132C354.719 80.9003 360.807 71.0261 360.807 59.9722C360.807 40.3601 341.641 24.4613 317.999 24.4613C294.357 24.4613 275.192 40.3601 275.192 59.9722C275.192 71.0478 281.304 80.939 290.883 87.4514L217.095 146.213C217.095 146.213 201.807 160.742 201.807 174.115C201.807 187.487 210.98 214.698 210.98 214.698L217.095 247.673H412.788L421.961 214.698C421.961 214.698 434.192 187.487 434.192 174.115C434.192 160.742 421.961 146.213 421.961 146.213L345.172 87.4132Z" fill="url(#paint1_linear_3_680)"/>
<path d="M210.98 214.698C210.98 214.698 201.807 187.487 201.807 174.114C201.807 160.742 217.095 146.213 217.095 146.213L290.883 87.4514C281.304 80.939 275.192 71.0478 275.192 59.9722C275.192 40.3601 294.357 24.4613 317.999 24.4613C341.641 24.4613 360.807 40.3601 360.807 59.9722C360.807 71.0261 354.719 80.9003 345.172 87.4132L421.961 146.213C421.961 146.213 434.192 160.742 434.192 174.114C434.192 187.487 421.961 214.698 421.961 214.698M210.98 214.698L217.095 247.673H412.788L421.961 214.698M210.98 214.698H316.47H421.961" stroke="white" stroke-width="18.4296"/>
<defs>
<linearGradient id="paint0_linear_3_680" x1="318.678" y1="206.697" x2="318.678" y2="598.139" gradientUnits="userSpaceOnUse">
<stop stop-color="black"/>
<stop offset="1" stop-color="black"/>
</linearGradient>
<linearGradient id="paint1_linear_3_680" x1="317.999" y1="24.4613" x2="317.999" y2="247.673" gradientUnits="userSpaceOnUse">
<stop stop-color="black"/>
<stop offset="1" stop-color="black"/>
</linearGradient>
</defs>
</svg>
