<svg width="636" height="636" viewBox="0 0 636 636" fill="none" xmlns="http://www.w3.org/2000/svg">
<path d="M479.171 598.14H158.188V506.803L186.894 485.926V465.049C186.894 465.049 192.332 459.096 200.301 449.392C218.539 427.184 250.035 385.332 259.963 350.226C274.231 299.78 254.744 206.698 254.744 206.698H390.444C390.444 206.698 368.286 284.122 380.006 334.569C388.527 371.246 420.524 423.564 437.355 449.392C443.674 459.087 447.856 465.049 447.856 465.049V485.926L479.171 506.803V598.14Z" fill="url(#paint0_linear_3_678)"/>
<path d="M186.894 485.926L158.188 506.803V598.14H479.171V506.803L447.856 485.926M186.894 485.926V465.049C186.894 465.049 192.332 459.096 200.301 449.392M186.894 485.926H447.856M447.856 485.926V465.049C447.856 465.049 443.674 459.087 437.356 449.392M200.301 449.392C218.539 427.184 250.035 385.332 259.963 350.226C274.231 299.78 254.744 206.698 254.744 206.698H390.444C390.444 206.698 368.286 284.122 380.006 334.569C388.527 371.246 420.524 423.564 437.356 449.392M200.301 449.392H437.356" stroke="white" stroke-width="18.4296"/>
<path d="M159.724 30.7166H248.903V123.325H279.772V30.7166H362.091V123.325H392.961V30.7166H478.71V185.065V205.644L451.27 236.514H197.453L159.724 205.644V185.065V30.7166Z" fill="url(#paint1_linear_3_678)"/>
<path d="M159.724 185.065V205.644L197.453 236.514H451.27L478.71 205.644V185.065M159.724 185.065V30.7166H248.903V123.325H279.772V30.7166H362.091V123.325H392.961V30.7166H478.71V185.065M159.724 185.065H478.71" stroke="white" stroke-width="18.4296"/>
<defs>
<linearGradient id="paint0_linear_3_678" x1="318.68" y1="206.698" x2="318.68" y2="598.14" gradientUnits="userSpaceOnUse">
<stop stop-color="black"/>
<stop offset="1" stop-color="black"/>
</linearGradient>
<linearGradient id="paint1_linear_3_678" x1="319.217" y1="30.7166" x2="319.217" y2="236.514" gradientUnits="userSpaceOnUse">
<stop stop-color="black"/>
<stop offset="1" stop-color="black"/>
</linearGradient>
</defs>
</svg>
