<svg width="636" height="765" viewBox="0 0 636 765" fill="none" xmlns="http://www.w3.org/2000/svg">
<path d="M480.707 747.741H159.725V656.404L188.431 635.527V614.65C188.431 614.65 193.868 608.697 201.838 598.993C220.075 576.785 251.571 534.933 261.5 499.827C275.767 449.381 256.28 356.299 256.28 356.299H391.98C391.98 356.299 369.822 433.723 381.542 484.17C390.063 520.847 422.06 573.166 438.892 598.993C445.21 608.688 449.392 614.65 449.392 614.65V635.527L480.707 656.404V747.741Z" fill="url(#paint0_linear_3_682)"/>
<path d="M188.431 635.527L159.725 656.404V747.741H480.707V656.404L449.392 635.527M188.431 635.527V614.65C188.431 614.65 193.868 608.697 201.838 598.993M188.431 635.527H449.392M449.392 635.527V614.65C449.392 614.65 445.21 608.688 438.892 598.993M201.838 598.993C220.075 576.785 251.571 534.933 261.5 499.827C275.767 449.381 256.28 356.299 256.28 356.299H391.98C391.98 356.299 369.822 433.723 381.542 484.17C390.063 520.847 422.06 573.166 438.892 598.993M201.838 598.993H438.892" stroke="white" stroke-width="18.4296"/>
<path d="M308.596 104.612V69.4479H272.777V45.5688H306.208V9.75012H332.475V45.5688H365.906V69.4479H332.475V104.346C349.034 108.677 358.742 122.148 358.742 138.697C358.742 150.637 356.536 158.5 345.795 166.315L449.482 267.645L392.173 317.791H406.5V372.713H234.57V317.791H251.286L198.752 267.645L291.88 164.964H293.517C283.779 157.085 282.329 145.861 282.329 138.697C282.329 122.725 293.16 109.257 308.596 104.612Z" fill="url(#paint1_linear_3_682)"/>
<path d="M392.173 317.791L449.482 267.645L345.795 166.315C356.536 158.5 358.742 150.637 358.742 138.697C358.742 122.148 349.034 108.677 332.475 104.346V69.4479H365.906V45.5688H332.475V9.75012H306.208V45.5688H272.777V69.4479H308.596V104.612C293.16 109.257 282.329 122.725 282.329 138.697C282.329 145.861 283.779 157.085 293.517 164.964H291.88L198.752 267.645L251.286 317.791M392.173 317.791H406.5V372.713H234.57V317.791H251.286M392.173 317.791H251.286" stroke="white" stroke-width="18.4296"/>
<defs>
<linearGradient id="paint0_linear_3_682" x1="320.216" y1="356.299" x2="320.216" y2="747.741" gradientUnits="userSpaceOnUse">
<stop stop-color="#38180B"/>
<stop offset="1" stop-color="#3A1A0C"/>
</linearGradient>
<linearGradient id="paint1_linear_3_682" x1="324.117" y1="9.75012" x2="324.117" y2="372.713" gradientUnits="userSpaceOnUse">
<stop stop-color="#38180B"/>
<stop offset="1" stop-color="#3A1A0C"/>
</linearGradient>
</defs>
</svg>
