<svg width="636" height="636" viewBox="0 0 636 636" fill="none" xmlns="http://www.w3.org/2000/svg">
<path d="M479.17 598.14H158.188V506.803L186.893 485.926V465.049C186.893 465.049 192.331 459.096 200.3 449.392C218.538 427.184 250.034 385.332 259.962 350.226C274.23 299.78 254.743 206.698 254.743 206.698H390.443C390.443 206.698 368.285 284.122 380.005 334.569C388.526 371.246 420.523 423.565 437.355 449.392C443.673 459.087 447.855 465.049 447.855 465.049V485.926L479.17 506.803V598.14Z" fill="url(#paint0_linear_3_564)"/>
<path d="M186.893 485.926L158.188 506.803V598.14H479.17V506.803L447.855 485.926M186.893 485.926V465.049C186.893 465.049 192.331 459.096 200.3 449.392M186.893 485.926H447.855M447.855 485.926V465.049C447.855 465.049 443.673 459.087 437.355 449.392M200.3 449.392C218.538 427.184 250.034 385.332 259.962 350.226C274.23 299.78 254.743 206.698 254.743 206.698H390.443C390.443 206.698 368.285 284.122 380.005 334.569C388.526 371.246 420.523 423.565 437.355 449.392M200.3 449.392H437.355" stroke="white" stroke-width="18.4296"/>
<circle cx="322.593" cy="138.848" r="96.5557" fill="url(#paint1_linear_3_564)" stroke="white" stroke-width="18.4296"/>
<defs>
<linearGradient id="paint0_linear_3_564" x1="318.679" y1="206.698" x2="318.679" y2="598.14" gradientUnits="userSpaceOnUse">
<stop stop-color="#38180B"/>
<stop offset="1" stop-color="#3A1A0C"/>
</linearGradient>
<linearGradient id="paint1_linear_3_564" x1="322.593" y1="42.2919" x2="322.593" y2="235.403" gradientUnits="userSpaceOnUse">
<stop stop-color="#38180B"/>
<stop offset="1" stop-color="#3A1A0C"/>
</linearGradient>
</defs>
</svg>
