<svg width="636" height="636" viewBox="0 0 636 636" fill="none" xmlns="http://www.w3.org/2000/svg">
<path d="M480.705 618.741H159.723V527.405L188.428 506.528V485.651C188.428 485.651 193.866 479.697 201.836 469.993C220.073 447.785 251.569 405.933 261.498 370.828C275.765 320.381 256.278 227.299 256.278 227.299H391.978C391.978 227.299 369.82 304.724 381.54 355.17C390.061 391.848 422.058 444.166 438.89 469.993C445.208 479.688 449.39 485.651 449.39 485.651V506.528L480.705 527.405V618.741Z" fill="url(#paint0_linear_3_681)"/>
<path d="M188.428 506.528L159.723 527.404V618.741H480.705V527.404L449.39 506.528M188.428 506.528V485.651C188.428 485.651 193.866 479.697 201.836 469.993M188.428 506.528H449.39M449.39 506.528V485.651C449.39 485.651 445.208 479.688 438.89 469.993M201.836 469.993C220.073 447.785 251.569 405.933 261.498 370.828C275.765 320.381 256.278 227.299 256.278 227.299H391.978C391.978 227.299 369.82 304.724 381.54 355.17C390.061 391.848 422.058 444.166 438.89 469.993M201.836 469.993H438.89" stroke="white" stroke-width="18.4296"/>
<path d="M344.019 102.764C352.023 95.1476 360.147 81.3748 360.147 69.4528C360.147 46.362 341.429 27.6444 318.338 27.6444C295.247 27.6444 276.53 46.362 276.53 69.4528C276.53 83.0487 287.894 95.1295 297.944 102.764L276.53 132.165C276.53 132.165 244.933 128.99 225.431 132.165C205.928 135.341 172.009 157.715 172.009 157.715C172.009 157.715 212.277 174.813 225.431 190.233C238.584 205.652 257.948 236.687 257.948 236.687H241.69V287.786H406.601V236.687H392.664C392.664 236.687 406.986 205.652 422.859 190.233C438.733 174.813 473.959 157.715 473.959 157.715C473.959 157.715 443.269 135.341 422.859 132.165C402.45 128.99 369.437 132.165 369.437 132.165L344.019 102.764Z" fill="url(#paint1_linear_3_681)"/>
<path d="M257.948 236.687C257.948 236.687 238.584 205.652 225.431 190.233C212.277 174.813 172.009 157.715 172.009 157.715C172.009 157.715 205.928 135.341 225.431 132.165C244.933 128.99 276.53 132.165 276.53 132.165L297.944 102.764C287.894 95.1295 276.53 83.0487 276.53 69.4528C276.53 46.362 295.247 27.6444 318.338 27.6444C341.429 27.6444 360.147 46.362 360.147 69.4528C360.147 81.3748 352.023 95.1476 344.019 102.764L369.437 132.165C369.437 132.165 402.45 128.99 422.859 132.165C443.269 135.341 473.959 157.715 473.959 157.715C473.959 157.715 438.733 174.813 422.859 190.233C406.986 205.652 392.664 236.687 392.664 236.687M257.948 236.687H241.69V287.786H406.601V236.687H392.664M257.948 236.687H392.664" stroke="white" stroke-width="18.4296"/>
<defs>
<linearGradient id="paint0_linear_3_681" x1="320.214" y1="227.299" x2="320.214" y2="618.741" gradientUnits="userSpaceOnUse">
<stop stop-color="#38180B"/>
<stop offset="1" stop-color="#3A1A0C"/>
</linearGradient>
<linearGradient id="paint1_linear_3_681" x1="322.984" y1="27.6444" x2="322.984" y2="287.786" gradientUnits="userSpaceOnUse">
<stop stop-color="#38180B"/>
<stop offset="1" stop-color="#3A1A0C"/>
</linearGradient>
</defs>
</svg>
