<svg width="636" height="636" viewBox="0 0 636 636" fill="none" xmlns="http://www.w3.org/2000/svg">
<path d="M499.932 606.673H179.879V513.324L209.217 489.32L227.887 449.313C227.887 449.313 221.1 415.347 231.888 379.968C247.649 328.276 307.9 233.277 307.9 233.277C307.9 233.277 287.897 262.615 243.89 251.947C199.882 241.278 155.875 273.284 155.875 273.284L134.538 209.273L209.217 163.932C209.217 163.932 208.618 138.508 227.887 123.926C247.156 109.344 307.9 89.2531 307.9 89.2531V30.5767C307.9 30.5767 438.242 115.279 467.927 198.605C497.612 281.93 459.926 449.313 459.926 449.313L470.594 489.32L499.932 513.324V606.673Z" fill="white"/>
<path d="M470.594 489.32L499.932 513.324V606.673H179.879V513.324L209.217 489.32M470.594 489.32L459.926 449.313M470.594 489.32H209.217M459.926 449.313C459.926 449.313 497.612 281.93 467.927 198.605C438.242 115.279 307.9 30.5767 307.9 30.5767V89.2531C307.9 89.2531 247.156 109.344 227.887 123.926C208.618 138.508 209.217 163.932 209.217 163.932L134.538 209.273L155.875 273.284C155.875 273.284 199.882 241.278 243.89 251.947C287.897 262.615 307.9 233.277 307.9 233.277C307.9 233.277 247.649 328.276 231.888 379.968C221.1 415.347 227.887 449.313 227.887 449.313M459.926 449.313H227.887M227.887 449.313L209.217 489.32" stroke="url(#paint0_linear_3_630)" stroke-width="18.4296"/>
<defs>
<linearGradient id="paint0_linear_3_630" x1="317.235" y1="30.5767" x2="317.235" y2="606.673" gradientUnits="userSpaceOnUse">
<stop stop-color="black"/>
<stop offset="1" stop-color="black"/>
</linearGradient>
</defs>
</svg>
