<svg width="636" height="636" viewBox="0 0 636 636" fill="none" xmlns="http://www.w3.org/2000/svg">
<path d="M478.5 597.303H157.966V506.094L186.632 485.246V464.399C186.632 464.399 192.062 458.454 200.02 448.763C218.232 426.586 249.684 384.793 259.599 349.736C273.847 299.36 254.387 206.408 254.387 206.408H389.897C389.897 206.408 367.77 283.725 379.473 334.1C387.982 370.727 419.935 422.972 436.743 448.763C443.053 458.445 447.228 464.399 447.228 464.399V485.246L478.5 506.094V597.303Z" fill="white"/>
<path d="M186.632 485.246L157.966 506.094V597.303H478.5V506.094L447.228 485.246M186.632 485.246V464.399C186.632 464.399 192.062 458.454 200.02 448.763M186.632 485.246H447.228M447.228 485.246V464.399C447.228 464.399 443.053 458.445 436.743 448.763M200.02 448.763C218.232 426.586 249.684 384.793 259.599 349.736C273.847 299.36 254.387 206.408 254.387 206.408H389.897C389.897 206.408 367.77 283.725 379.473 334.1C387.982 370.727 419.935 422.972 436.743 448.763M200.02 448.763H436.743" stroke="url(#paint0_linear_3_484)" stroke-width="18.4038"/>
<circle cx="322.142" cy="138.653" r="96.4207" fill="white" stroke="url(#paint1_linear_3_484)" stroke-width="18.4038"/>
<defs>
<linearGradient id="paint0_linear_3_484" x1="318.233" y1="206.408" x2="318.233" y2="597.303" gradientUnits="userSpaceOnUse">
<stop stop-color="black"/>
<stop offset="1" stop-color="black"/>
</linearGradient>
<linearGradient id="paint1_linear_3_484" x1="322.142" y1="42.2324" x2="322.142" y2="235.074" gradientUnits="userSpaceOnUse">
<stop stop-color="black"/>
<stop offset="1" stop-color="black"/>
</linearGradient>
</defs>
</svg>
