<svg width="636" height="636" viewBox="0 0 636 636" fill="none" xmlns="http://www.w3.org/2000/svg">
<path d="M480.706 618.741H159.723V527.404L188.429 506.527V485.65C188.429 485.65 193.867 479.697 201.836 469.993C220.074 447.785 251.569 405.933 261.498 370.827C275.766 320.381 256.279 227.299 256.279 227.299H391.979C391.979 227.299 369.821 304.723 381.541 355.17C390.062 391.847 422.059 444.166 438.89 469.993C445.209 479.688 449.39 485.65 449.39 485.65V506.527L480.706 527.404V618.741Z" fill="white"/>
<path d="M188.429 506.527L159.723 527.404V618.741H480.706V527.404L449.39 506.527M188.429 506.527V485.65C188.429 485.65 193.867 479.697 201.836 469.993M188.429 506.527H449.39M449.39 506.527V485.65C449.39 485.65 445.209 479.688 438.89 469.993M201.836 469.993C220.074 447.785 251.569 405.933 261.498 370.827C275.766 320.381 256.279 227.299 256.279 227.299H391.979C391.979 227.299 369.821 304.723 381.541 355.17C390.062 391.847 422.059 444.166 438.89 469.993M201.836 469.993H438.89" stroke="url(#paint0_linear_3_627)" stroke-width="18.4296"/>
<path d="M344.02 102.764C352.024 95.1472 360.148 81.3744 360.148 69.4525C360.148 46.3617 341.43 27.644 318.34 27.644C295.249 27.644 276.531 46.3617 276.531 69.4525C276.531 83.0484 287.895 95.1291 297.946 102.764L276.531 132.165C276.531 132.165 244.934 128.99 225.432 132.165C205.929 135.341 172.01 157.715 172.01 157.715C172.01 157.715 212.278 174.813 225.432 190.232C238.585 205.652 257.95 236.686 257.95 236.686H241.691V287.785H406.602V236.686H392.666C392.666 236.686 406.987 205.652 422.861 190.232C438.734 174.813 473.96 157.715 473.96 157.715C473.96 157.715 443.27 135.341 422.861 132.165C402.451 128.99 369.439 132.165 369.439 132.165L344.02 102.764Z" fill="white"/>
<path d="M257.95 236.686C257.95 236.686 238.585 205.652 225.432 190.232C212.278 174.813 172.01 157.715 172.01 157.715C172.01 157.715 205.929 135.341 225.432 132.165C244.934 128.99 276.531 132.165 276.531 132.165L297.946 102.764C287.895 95.1291 276.531 83.0484 276.531 69.4525C276.531 46.3617 295.249 27.644 318.34 27.644C341.43 27.644 360.148 46.3617 360.148 69.4525C360.148 81.3744 352.024 95.1472 344.02 102.764L369.439 132.165C369.439 132.165 402.451 128.99 422.861 132.165C443.27 135.341 473.96 157.715 473.96 157.715C473.96 157.715 438.734 174.813 422.861 190.232C406.987 205.652 392.666 236.686 392.666 236.686M257.95 236.686H241.691V287.785H406.602V236.686H392.666M257.95 236.686H392.666" stroke="url(#paint1_linear_3_627)" stroke-width="18.4296"/>
<defs>
<linearGradient id="paint0_linear_3_627" x1="320.215" y1="227.299" x2="320.215" y2="618.741" gradientUnits="userSpaceOnUse">
<stop stop-color="black"/>
<stop offset="1" stop-color="black"/>
</linearGradient>
<linearGradient id="paint1_linear_3_627" x1="322.985" y1="27.644" x2="322.985" y2="287.785" gradientUnits="userSpaceOnUse">
<stop stop-color="black"/>
<stop offset="1" stop-color="black"/>
</linearGradient>
</defs>
</svg>
