<svg width="636" height="636" viewBox="0 0 636 636" fill="none" xmlns="http://www.w3.org/2000/svg">
<path d="M479.17 598.14H158.187V506.804L186.893 485.927V465.05C186.893 465.05 192.331 459.097 200.3 449.392C218.537 427.185 250.033 385.333 259.962 350.227C274.23 299.781 254.743 206.698 254.743 206.698H390.443C390.443 206.698 368.284 284.123 380.004 334.569C388.525 371.247 420.522 423.565 437.354 449.392C443.673 459.088 447.854 465.05 447.854 465.05V485.927L479.17 506.804V598.14Z" fill="white"/>
<path d="M186.893 485.927L158.187 506.804V598.14H479.17V506.804L447.854 485.927M186.893 485.927V465.05C186.893 465.05 192.331 459.097 200.3 449.392M186.893 485.927H447.854M447.854 485.927V465.05C447.854 465.05 443.673 459.088 437.354 449.392M200.3 449.392C218.537 427.185 250.033 385.333 259.962 350.227C274.23 299.781 254.743 206.698 254.743 206.698H390.443C390.443 206.698 368.284 284.123 380.004 334.569C388.525 371.247 420.522 423.565 437.354 449.392M200.3 449.392H437.354" stroke="url(#paint0_linear_3_629)" stroke-width="18.4296"/>
<path d="M345.172 87.4138C354.719 80.9009 360.807 71.0267 360.807 59.9728C360.807 40.3607 341.642 24.4619 318 24.4619C294.358 24.4619 275.192 40.3607 275.192 59.9728C275.192 71.0484 281.304 80.9396 290.883 87.452L217.096 146.214C217.096 146.214 201.807 160.742 201.807 174.115C201.807 187.488 210.98 214.699 210.98 214.699L217.096 247.673H412.788L421.961 214.699C421.961 214.699 434.192 187.488 434.192 174.115C434.192 160.742 421.961 146.214 421.961 146.214L345.172 87.4138Z" fill="white"/>
<path d="M210.98 214.699C210.98 214.699 201.807 187.488 201.807 174.115C201.807 160.742 217.096 146.214 217.096 146.214L290.883 87.452C281.304 80.9396 275.192 71.0484 275.192 59.9728C275.192 40.3607 294.358 24.4619 318 24.4619C341.642 24.4619 360.807 40.3607 360.807 59.9728C360.807 71.0267 354.719 80.9009 345.172 87.4138L421.961 146.214C421.961 146.214 434.192 160.742 434.192 174.115C434.192 187.488 421.961 214.699 421.961 214.699M210.98 214.699L217.096 247.673H412.788L421.961 214.699M210.98 214.699H316.471H421.961" stroke="url(#paint1_linear_3_629)" stroke-width="18.4296"/>
<defs>
<linearGradient id="paint0_linear_3_629" x1="318.678" y1="206.698" x2="318.678" y2="598.14" gradientUnits="userSpaceOnUse">
<stop stop-color="#38180B"/>
<stop offset="1" stop-color="#3A1A0C"/>
</linearGradient>
<linearGradient id="paint1_linear_3_629" x1="318" y1="24.4619" x2="318" y2="247.673" gradientUnits="userSpaceOnUse">
<stop stop-color="#38180B"/>
<stop offset="1" stop-color="#3A1A0C"/>
</linearGradient>
</defs>
</svg>
