<svg width="636" height="636" viewBox="0 0 636 636" fill="none" xmlns="http://www.w3.org/2000/svg">
<path d="M479.171 598.138H158.188V506.802L186.894 485.925V465.048C186.894 465.048 192.332 459.095 200.301 449.39C218.539 427.183 250.035 385.331 259.963 350.225C274.231 299.779 254.744 206.696 254.744 206.696H390.444C390.444 206.696 368.286 284.121 380.006 334.567C388.527 371.245 420.524 423.563 437.355 449.39C443.674 459.086 447.856 465.048 447.856 465.048V485.925L479.171 506.802V598.138Z" fill="white"/>
<path d="M186.894 485.925L158.188 506.802V598.138H479.171V506.802L447.856 485.925M186.894 485.925V465.048C186.894 465.048 192.332 459.095 200.301 449.39M186.894 485.925H447.856M447.856 485.925V465.048C447.856 465.048 443.674 459.086 437.356 449.39M200.301 449.39C218.539 427.183 250.035 385.331 259.963 350.225C274.231 299.779 254.744 206.696 254.744 206.696H390.444C390.444 206.696 368.286 284.121 380.006 334.567C388.527 371.245 420.524 423.563 437.356 449.39M200.301 449.39H437.356" stroke="url(#paint0_linear_3_631)" stroke-width="18.4296"/>
<path d="M159.724 30.7148H248.903V123.324H279.772V30.7148H362.091V123.324H392.961V30.7148H478.71V185.063V205.643L451.27 236.512H197.453L159.724 205.643V185.063V30.7148Z" fill="white"/>
<path d="M159.724 185.063V205.643L197.453 236.512H451.27L478.71 205.643V185.063M159.724 185.063V30.7148H248.903V123.324H279.772V30.7148H362.091V123.324H392.961V30.7148H478.71V185.063M159.724 185.063H478.71" stroke="url(#paint1_linear_3_631)" stroke-width="18.4296"/>
<defs>
<linearGradient id="paint0_linear_3_631" x1="318.68" y1="206.696" x2="318.68" y2="598.138" gradientUnits="userSpaceOnUse">
<stop stop-color="#38180B"/>
<stop offset="1" stop-color="#3A1A0C"/>
</linearGradient>
<linearGradient id="paint1_linear_3_631" x1="319.217" y1="30.7148" x2="319.217" y2="236.512" gradientUnits="userSpaceOnUse">
<stop stop-color="#38180B"/>
<stop offset="1" stop-color="#3A1A0C"/>
</linearGradient>
</defs>
</svg>
